<mxfile host="app.diagrams.net" modified="2023-06-27T08:51:34.033Z" agent="Mozilla/5.0 (Windows NT 10.0; Win64; x64) AppleWebKit/537.36 (KHTML, like Gecko) Chrome/114.0.0.0 Safari/537.36" etag="ZqwI1gx6MCz6hKnI2SiJ" version="21.5.0" type="github">
  <diagram id="C5RBs43oDa-KdzZeNtuy" name="Page-1">
    <mxGraphModel dx="1434" dy="796" grid="1" gridSize="10" guides="1" tooltips="1" connect="1" arrows="1" fold="1" page="1" pageScale="1" pageWidth="827" pageHeight="1169" math="0" shadow="0">
      <root>
        <mxCell id="WIyWlLk6GJQsqaUBKTNV-0" />
        <mxCell id="WIyWlLk6GJQsqaUBKTNV-1" parent="WIyWlLk6GJQsqaUBKTNV-0" />
        <mxCell id="Mgmkt8nSRx1WP4Qichw3-2" value="" style="edgeStyle=orthogonalEdgeStyle;rounded=0;orthogonalLoop=1;jettySize=auto;html=1;fontSize=14;" parent="WIyWlLk6GJQsqaUBKTNV-1" source="Mgmkt8nSRx1WP4Qichw3-0" target="Mgmkt8nSRx1WP4Qichw3-1" edge="1">
          <mxGeometry relative="1" as="geometry" />
        </mxCell>
        <mxCell id="Mgmkt8nSRx1WP4Qichw3-0" value="Start" style="rounded=1;whiteSpace=wrap;html=1;fontSize=14;" parent="WIyWlLk6GJQsqaUBKTNV-1" vertex="1">
          <mxGeometry x="340" y="50" width="120" height="60" as="geometry" />
        </mxCell>
        <mxCell id="Mgmkt8nSRx1WP4Qichw3-4" value="" style="edgeStyle=orthogonalEdgeStyle;rounded=0;orthogonalLoop=1;jettySize=auto;html=1;fontSize=14;" parent="WIyWlLk6GJQsqaUBKTNV-1" source="Mgmkt8nSRx1WP4Qichw3-1" target="Mgmkt8nSRx1WP4Qichw3-3" edge="1">
          <mxGeometry relative="1" as="geometry" />
        </mxCell>
        <mxCell id="Mgmkt8nSRx1WP4Qichw3-1" value="GOTO &lt;br&gt;credit check" style="whiteSpace=wrap;html=1;rounded=1;fontSize=14;" parent="WIyWlLk6GJQsqaUBKTNV-1" vertex="1">
          <mxGeometry x="340" y="190" width="120" height="60" as="geometry" />
        </mxCell>
        <mxCell id="Mgmkt8nSRx1WP4Qichw3-8" value="" style="edgeStyle=orthogonalEdgeStyle;rounded=0;orthogonalLoop=1;jettySize=auto;html=1;" parent="WIyWlLk6GJQsqaUBKTNV-1" source="Mgmkt8nSRx1WP4Qichw3-3" target="Mgmkt8nSRx1WP4Qichw3-7" edge="1">
          <mxGeometry relative="1" as="geometry" />
        </mxCell>
        <mxCell id="j3mevlgGj8fT7lB6k-i4-2" style="edgeStyle=orthogonalEdgeStyle;rounded=0;orthogonalLoop=1;jettySize=auto;html=1;entryX=0.5;entryY=0;entryDx=0;entryDy=0;" edge="1" parent="WIyWlLk6GJQsqaUBKTNV-1" source="Mgmkt8nSRx1WP4Qichw3-3" target="Mgmkt8nSRx1WP4Qichw3-5">
          <mxGeometry relative="1" as="geometry" />
        </mxCell>
        <mxCell id="Mgmkt8nSRx1WP4Qichw3-3" value="Check if&lt;br&gt;EIP/AIP&lt;br style=&quot;font-size: 14px;&quot;&gt;exceeds the &lt;br style=&quot;font-size: 14px;&quot;&gt;threshold limit" style="rhombus;whiteSpace=wrap;html=1;rounded=1;fontSize=14;" parent="WIyWlLk6GJQsqaUBKTNV-1" vertex="1">
          <mxGeometry x="310" y="309" width="180" height="180" as="geometry" />
        </mxCell>
        <mxCell id="j3mevlgGj8fT7lB6k-i4-5" value="" style="edgeStyle=orthogonalEdgeStyle;rounded=0;orthogonalLoop=1;jettySize=auto;html=1;" edge="1" parent="WIyWlLk6GJQsqaUBKTNV-1" source="Mgmkt8nSRx1WP4Qichw3-5" target="j3mevlgGj8fT7lB6k-i4-4">
          <mxGeometry relative="1" as="geometry">
            <Array as="points">
              <mxPoint x="190" y="1000" />
            </Array>
          </mxGeometry>
        </mxCell>
        <mxCell id="Mgmkt8nSRx1WP4Qichw3-5" value="Continue BAU" style="whiteSpace=wrap;html=1;fontSize=14;rounded=1;" parent="WIyWlLk6GJQsqaUBKTNV-1" vertex="1">
          <mxGeometry x="130" y="727.5" width="120" height="60" as="geometry" />
        </mxCell>
        <mxCell id="j3mevlgGj8fT7lB6k-i4-1" value="" style="edgeStyle=orthogonalEdgeStyle;rounded=0;orthogonalLoop=1;jettySize=auto;html=1;" edge="1" parent="WIyWlLk6GJQsqaUBKTNV-1" source="Mgmkt8nSRx1WP4Qichw3-7" target="j3mevlgGj8fT7lB6k-i4-0">
          <mxGeometry relative="1" as="geometry" />
        </mxCell>
        <mxCell id="Mgmkt8nSRx1WP4Qichw3-7" value="Show modal" style="whiteSpace=wrap;html=1;fontSize=14;rounded=1;" parent="WIyWlLk6GJQsqaUBKTNV-1" vertex="1">
          <mxGeometry x="600" y="555" width="120" height="60" as="geometry" />
        </mxCell>
        <mxCell id="Mgmkt8nSRx1WP4Qichw3-9" value="No" style="text;html=1;align=center;verticalAlign=middle;resizable=0;points=[];autosize=1;strokeColor=none;fillColor=none;" parent="WIyWlLk6GJQsqaUBKTNV-1" vertex="1">
          <mxGeometry x="190" y="368" width="40" height="30" as="geometry" />
        </mxCell>
        <mxCell id="Mgmkt8nSRx1WP4Qichw3-10" value="Yes" style="text;html=1;align=center;verticalAlign=middle;resizable=0;points=[];autosize=1;strokeColor=none;fillColor=none;" parent="WIyWlLk6GJQsqaUBKTNV-1" vertex="1">
          <mxGeometry x="570" y="368" width="40" height="30" as="geometry" />
        </mxCell>
        <mxCell id="j3mevlgGj8fT7lB6k-i4-3" style="edgeStyle=orthogonalEdgeStyle;rounded=0;orthogonalLoop=1;jettySize=auto;html=1;entryX=1;entryY=0.5;entryDx=0;entryDy=0;" edge="1" parent="WIyWlLk6GJQsqaUBKTNV-1" source="j3mevlgGj8fT7lB6k-i4-0" target="Mgmkt8nSRx1WP4Qichw3-5">
          <mxGeometry relative="1" as="geometry" />
        </mxCell>
        <mxCell id="j3mevlgGj8fT7lB6k-i4-0" value="change message to&lt;br&gt;“Your current order will place you ${AmountOverTheLimit} over that limit. Please adjust the items in your cart.”" style="whiteSpace=wrap;html=1;fontSize=14;rounded=1;" vertex="1" parent="WIyWlLk6GJQsqaUBKTNV-1">
          <mxGeometry x="440" y="695" width="260" height="125" as="geometry" />
        </mxCell>
        <mxCell id="j3mevlgGj8fT7lB6k-i4-4" value="End" style="whiteSpace=wrap;html=1;fontSize=14;rounded=1;" vertex="1" parent="WIyWlLk6GJQsqaUBKTNV-1">
          <mxGeometry x="340" y="970" width="120" height="60" as="geometry" />
        </mxCell>
      </root>
    </mxGraphModel>
  </diagram>
</mxfile>
